# xmcd
#
# Track frame offsets:
# 150
# 15605
# 31320
# 44817
# 60007
# 71630
# 87437
# 101157
# 118682
# 139657
# 155187
# 168142
# 183922
# 194455
# 206602
#
# Disc length: 2908 seconds
#
#
# Revision: 0
# Processed by: cddbd v1.5.2PL0 Copyright (c) Steve Scherf et al.
# Submitted via: FreeRIP 2.96 
#
DISCID=d10b5a0f
DTITLE=toca do vale - o quentchê do forró
DYEAR=1900
DGENRE=forró
TTITLE0=jardim dos animais
TTITLE1=manera sebastião
TTITLE2=portas e tramelas
TTITLE3=vá com deus
TTITLE4=viola
TTITLE5=tou mau da vida
TTITLE6=o invejoso
TTITLE7=perguntas sem respostas
TTITLE8=rebolado
TTITLE9=você pode me perder
TTITLE10=filho meu
TTITLE11=essa cidade é uma selva sem você
TTITLE12=o mensageiro
TTITLE13=de perna virada
TTITLE14=bica d'agua
EXTD=
EXTT0=
EXTT1=
EXTT2=
EXTT3=
EXTT4=
EXTT5=
EXTT6=
EXTT7=
EXTT8=
EXTT9=
EXTT10=
EXTT11=
EXTT12=
EXTT13=
EXTT14=
PLAYORDER=
